<?xml version="1.0" standalone="no"?>
<!DOCTYPE svg PUBLIC "-//W3C//DTD SVG 20010904//EN"
 "http://www.w3.org/TR/2001/REC-SVG-20010904/DTD/svg10.dtd">
<svg version="1.0" xmlns="http://www.w3.org/2000/svg"
 width="500.000000pt" height="500.000000pt" viewBox="0 0 500.000000 500.000000"
 preserveAspectRatio="xMidYMid meet">
<metadata>
Created by potrace 1.14, written by Peter Selinger 2001-2017
</metadata>
<g transform="translate(0.000000,500.000000) scale(0.100000,-0.100000)"
fill="#000000" stroke="none">
<path d="M1584 4413 c-27 -14 -65 -45 -84 -69 -19 -24 -40 -50 -47 -58 -7 -7
-15 -24 -18 -37 -10 -40 -38 -64 -110 -100 -39 -19 -75 -39 -81 -44 -6 -6 -30
-19 -53 -29 -22 -11 -41 -23 -41 -28 0 -4 -5 -8 -11 -8 -14 0 -167 -110 -221
-160 -24 -22 -46 -40 -50 -40 -5 0 -8 -4 -8 -10 0 -5 -8 -18 -17 -28 -73 -76
-153 -198 -240 -369 -41 -79 -73 -144 -73 -145 2 -4 -4 -20 -30 -93 -12 -33
-23 -69 -24 -80 -2 -11 -8 -40 -15 -65 -36 -127 -54 -399 -37 -585 8 -94 15
-154 21 -175 2 -8 7 -29 10 -46 8 -47 54 -205 70 -241 8 -17 15 -34 15 -37 0
-40 227 -425 330 -561 28 -36 40 -64 44 -100 14 -108 18 -131 28 -170 13 -53
34 -93 69 -132 15 -18 31 -48 34 -67 11 -59 34 -64 285 -72 206 -7 240 -1 240
40 0 26 37 69 53 63 5 -1 32 -54 60 -116 28 -62 63 -126 79 -141 15 -16 31
-42 34 -59 4 -17 11 -35 18 -40 22 -18 186 -34 381 -36 170 -2 199 6 203 52 1
18 15 39 39 61 21 18 74 68 118 111 118 115 154 130 353 146 67 5 74 4 95 -18
106 -112 130 -137 137 -137 10 0 30 -47 30 -70 0 -34 102 -54 280 -54 97 0
194 12 198 24 2 5 8 10 13 10 13 0 66 59 94 105 13 22 33 78 45 125 34 139 59
203 91 240 17 19 58 66 92 104 34 38 70 78 79 90 10 12 22 26 28 33 5 7 10 15
10 18 0 4 6 13 13 20 30 35 47 62 119 195 51 95 127 286 144 361 6 30 9 40 17
59 6 15 33 171 41 243 29 226 25 443 -10 637 -2 14 -7 41 -10 60 -3 19 -14 78
-25 130 -11 52 -22 125 -25 163 -4 60 -1 76 30 150 19 45 48 109 64 142 30 63
51 108 73 163 8 17 17 32 21 32 5 0 8 6 8 13 0 6 16 53 35 102 28 75 33 101
31 155 -7 146 -119 257 -326 321 -59 19 -98 24 -185 24 -147 0 -229 -24 -489
-144 -48 -23 -98 -43 -109 -45 -12 -1 -87 14 -167 36 -224 59 -446 107 -570
124 -30 3 -66 8 -80 10 -72 10 -210 12 -245 3 -34 -8 -295 -22 -388 -20 -15 0
-67 16 -115 35 -91 36 -143 46 -253 51 -53 2 -74 -2 -115 -22z"/>
</g>
</svg>
